<?xml version="1.0" encoding="utf-8"?>
<!-- Generator: Adobe Illustrator 24.2.3, SVG Export Plug-In . SVG Version: 6.00 Build 0)  -->
<svg version="1.1" id="Capa_1" xmlns="http://www.w3.org/2000/svg" xmlns:xlink="http://www.w3.org/1999/xlink" x="0px" y="0px" viewBox="0 0 206 159" style="enable-background:new 0 0 206 159;" xml:space="preserve">
<style>
	.st0{fill:#71A92F;}
	.st1{fill:#1C4A00;}
	.st2{fill:#FFFFFF;}
	.st3{fill:#F37B21;}
	.st4{clip-path:url(#SVGID_2_);fill:url(#SVGID_3_);}
	.st5{clip-path:url(#SVGID_5_);fill:url(#SVGID_6_);}
	.st6{clip-path:url(#SVGID_8_);fill:url(#SVGID_9_);}
	.st7{clip-path:url(#SVGID_11_);fill:url(#SVGID_12_);}
	.st8{clip-path:url(#SVGID_14_);fill:url(#SVGID_15_);}
	.st9{clip-path:url(#SVGID_17_);fill:url(#SVGID_18_);}
	.st10{clip-path:url(#SVGID_20_);fill:url(#SVGID_21_);}
	.st11{clip-path:url(#SVGID_23_);fill:url(#SVGID_24_);}
	.st12{clip-path:url(#SVGID_26_);fill:url(#SVGID_27_);}
	.st13{clip-path:url(#SVGID_29_);fill:url(#SVGID_30_);}
	.st14{clip-path:url(#SVGID_32_);fill:url(#SVGID_33_);}
	.st15{clip-path:url(#SVGID_35_);fill:url(#SVGID_36_);}
	.st16{clip-path:url(#SVGID_38_);fill:url(#SVGID_39_);}
	.st17{clip-path:url(#SVGID_41_);fill:url(#SVGID_42_);}
	.st18{clip-path:url(#SVGID_44_);fill:url(#SVGID_45_);}
	.st19{clip-path:url(#SVGID_47_);fill:url(#SVGID_48_);}
	.st20{clip-path:url(#SVGID_50_);fill:url(#SVGID_51_);}
	.st21{clip-path:url(#SVGID_53_);fill:url(#SVGID_54_);}
	.st22{clip-path:url(#SVGID_56_);fill:url(#SVGID_57_);}
	.st23{fill:#B2B3AD;}
	.st24{fill:#414042;}
	.st25{fill-rule:evenodd;clip-rule:evenodd;fill:#12191B;}
	.st26{fill-rule:evenodd;clip-rule:evenodd;fill:#74B643;}
	.st27{fill-rule:evenodd;clip-rule:evenodd;fill:#F7B817;}
	.st28{fill-rule:evenodd;clip-rule:evenodd;fill:#EB7E23;}
	.st29{fill-rule:evenodd;clip-rule:evenodd;fill:#1D9CD7;}
	.st30{fill-rule:evenodd;clip-rule:evenodd;fill:#FFFFFF;}

</style>
<g>
	<g>
		<g>
			<path class="st1" d="M137.9,122.3h-89c-2.4,0-4.3-1.9-4.3-4.3v-5.7c0-2.4,1.9-4.3,4.3-4.3h89c2.4,0,4.3,1.9,4.3,4.3v5.7
				C142.2,120.4,140.2,122.3,137.9,122.3z M49.4,117.6h88v-4.8h-88V117.6z"></path>
		</g>
		<g>
			<g>
				<path class="st1" d="M135.8,76.3l-89.7,37.3L25.9,96.8c-0.7-0.6-1.3-1.3-1.6-2.2l-9.7-23.4c-1.2-2.9,0.2-6.3,3.1-7.5l70.6-29.4
					c0.1,0,0.2-0.1,0.2-0.2l1.2-10.9c0.2-2.4,1.8-4.6,4.1-5.6l23.6-9.8c2.5-1.1,5.4,0.1,6.5,2.7l1.9,4.5c1.1,2.5-0.1,5.4-2.7,6.5
					l-8.2,3.4c-0.1,0-0.2,0.2-0.1,0.3L135.8,76.3z M47,108.2l82.6-34.4l-19.3-46.9c-1-2.5,0.2-5.4,2.7-6.5l8.2-3.4
					c0.1,0,0.1-0.2,0.1-0.3l-1.9-4.5c0-0.1-0.2-0.1-0.3-0.1L95.6,22c-0.7,0.3-1.1,0.9-1.2,1.7l-1.2,11c-0.2,1.8-1.4,3.4-3.1,4.1
					L19.5,68.1c-0.5,0.2-0.7,0.8-0.5,1.2l9.7,23.4c0.1,0.1,0.2,0.3,0.3,0.4L47,108.2z"></path>
			</g>
		</g>
		<g id="Grupo_651_5_" transform="translate(-111.5 -1713.5)">
			<g id="Grupo_321_6_" transform="translate(212.119 1796.994)">
				<path id="Trazado_947_6_" class="st0" d="M5,36.5v-4.4c0-3.7-3-9.5-6.7-9.5h-38.7c-3.7,0-6.7,5.8-6.7,9.5v4.4H5z"></path>
				<path id="Trazado_948_6_" class="st0" d="M75.5,22.7H61.2c-4.1,0-7.5,3-7.5,6.7v7.2H83v-7.2C83,25.7,79.6,22.7,75.5,22.7z"></path>
				<path id="Trazado_949_6_" class="st1" d="M5,37.4h-52c-0.5,0-0.8-0.4-0.8-0.8l0,0v-4.4c0-4.1,3.2-10.3,7.5-10.3h38.7
					c4.3,0,7.5,6.2,7.5,10.3v4.4C5.8,37,5.4,37.4,5,37.4C5,37.4,5,37.4,5,37.4z M-46.3,35.7H4.1v-3.5c0-3.3-2.7-8.6-5.8-8.6h-38.7
					c-3.1,0-5.8,5.4-5.8,8.6L-46.3,35.7z"></path>
				<path id="Trazado_950_6_" class="st1" d="M83,37.4H53.7c-0.5,0-0.8-0.4-0.8-0.8l0,0v-7.2c0-4.1,3.8-7.5,8.4-7.5h14.3
					c4.6,0,8.4,3.4,8.4,7.5v7.2C83.9,37,83.5,37.4,83,37.4C83,37.4,83,37.4,83,37.4z M54.5,35.7h27.7v-6.3c0-3.2-3-5.8-6.7-5.8H61.2
					c-3.7,0-6.7,2.6-6.7,5.8L54.5,35.7z"></path>
				<ellipse id="Elipse_43_6_" class="st0" cx="12.2" cy="47.9" rx="80.3" ry="2.7"></ellipse>
				<path id="Trazado_952_6_" class="st1" d="M89.5,38.8H49.2c-2.9,0-5.2-2.4-5.3-5.3v-52.8c0-2.9,2.4-5.2,5.3-5.3h40.3
					c2.9,0,5.2,2.4,5.2,5.3v52.8C94.7,36.4,92.4,38.8,89.5,38.8z M49.2-20.1c-0.4,0-0.8,0.4-0.8,0.8v52.8c0,0.4,0.4,0.8,0.8,0.8
					h40.3c0.4,0,0.8-0.4,0.8-0.8l0,0v-52.8c0-0.4-0.4-0.8-0.8-0.8l0,0H49.2z"></path>
				<g id="Grupo_320_6_" transform="translate(128.021 38.416)">
					<path id="Rectángulo_1634_6_" class="st1" d="M-72.9-55.3h27.8c0.8,0,1.4,0.6,1.4,1.4v22.3c0,0.8-0.6,1.4-1.4,1.4h-27.8
						c-0.8,0-1.4-0.6-1.4-1.4v-22.3C-74.3-54.6-73.7-55.3-72.9-55.3z"></path>
					<path id="Trazado_953_6_" class="st1" d="M-35.5-55.3h-3.8c-1.2,0-2.2,1-2.2,2.2v20.7c0,1.2,1,2.2,2.2,2.2h3.8V-55.3z"></path>
				</g>
				<ellipse id="Elipse_44_6_" class="st1" cx="-32.6" cy="36.5" rx="11.5" ry="11.5"></ellipse>
				<ellipse id="Elipse_45_5_" class="st1" cx="-8.2" cy="36.5" rx="11.5" ry="11.5"></ellipse>
				<ellipse id="Elipse_46_6_" class="st1" cx="68.4" cy="36.5" rx="11.5" ry="11.5"></ellipse>
				<ellipse id="Elipse_47_6_" class="st2" cx="68.4" cy="36.5" rx="4.8" ry="4.8"></ellipse>
				<ellipse id="Elipse_48_5_" class="st2" cx="-8.2" cy="36.5" rx="4.8" ry="4.8"></ellipse>
				<ellipse id="Elipse_49_6_" class="st2" cx="-32.6" cy="36.5" rx="4.8" ry="4.8"></ellipse>
				<path id="Rectángulo_1638_6_" class="st2" d="M77.3,1.7h5.3c1.5,0,2.8,1.2,2.8,2.8v3.4c0,1.5-1.2,2.8-2.8,2.8h-5.3
					c-1.5,0-2.8-1.2-2.8-2.8V4.5C74.5,3,75.7,1.7,77.3,1.7z"></path>
			</g>
		</g>
		<g>
			<path id="Rectángulo_1635_9_" class="st0" d="M48.6,61l3.4,0.2c1.6,0.1,2.8,1.4,2.7,3l-1.7,30.9c-0.1,1.6-1.4,2.8-3,2.7
				l-3.4-0.2c-1.6-0.1-2.8-1.4-2.7-3l1.7-30.9C45.7,62.1,47.1,60.9,48.6,61z"></path>
			<g>
				<path id="Rectángulo_1636_3_" class="st0" d="M63,55l3.4,0.2c1.6,0.1,2.8,1.4,2.7,3l-1.7,30.9c-0.1,1.6-1.4,2.8-3,2.7L61,91.6
					c-1.6-0.1-2.8-1.4-2.7-3L60,57.7C60.1,56.2,61.4,55,63,55z"></path>
				<path id="Rectángulo_1637_6_" class="st0" d="M77.4,49.1l3.4,0.2c1.6,0.1,2.8,1.4,2.7,3l-1.6,30.9c-0.1,1.6-1.4,2.8-3,2.7
					l-3.4-0.2c-1.6-0.1-2.8-1.4-2.7-3l1.6-30.9C74.5,50.2,75.8,49,77.4,49.1z"></path>
				<path id="Rectángulo_1637_5_" class="st0" d="M94.9,41.8l3.4,0.2c1.6,0.1,2.8,1.4,2.7,3l-1.6,30.9c-0.1,1.6-1.4,2.8-3,2.7
					L93,78.3c-1.6-0.1-2.8-1.4-2.7-3L92,44.4C92,42.9,93.4,41.7,94.9,41.8z"></path>
			</g>
		</g>
		<path class="st1" d="M130,109.9l-2.8,1.2c-1,0.4-2.2-0.1-2.6-1.1l-7.2-17.6c-0.4-1,0.1-2.2,1.1-2.6l2.8-1.2c1-0.4,2.2,0.1,2.6,1.1
			l7.2,17.6C131.5,108.3,131,109.5,130,109.9z"></path>
		<rect x="117.8" y="81" transform="matrix(0.9257 -0.3782 0.3782 0.9257 -24.76 51.9128)" class="st1" width="4" height="15.9"></rect>
	</g>
	<g>
		<path class="st1" d="M46.4,132.9c0.7-1.1,1.2-2.3,1.2-3.7c0-3.6-2.9-6.5-6.5-6.5c-3.6,0-6.5,2.9-6.5,6.5c0,1.4,0.4,2.7,1.2,3.7
			H46.4z"></path>
		<path class="st1" d="M35.1,132.9c0.8-0.8,1.3-2,1.3-3.2c0-2.6-2.1-4.7-4.7-4.7s-4.7,2.1-4.7,4.7c0,1.3,0.5,2.4,1.3,3.2H35.1z"></path>
		<path class="st1" d="M30.4,132.9c0.2-0.5,0.3-1.1,0.3-1.7c0-2.6-2.1-4.7-4.7-4.7s-4.7,2.1-4.7,4.7c0,0.6,0.1,1.2,0.3,1.7H30.4z"></path>
		<path class="st1" d="M36.4,132.9c0-0.1,0-0.2,0-0.4c0-2.6-2.1-4.7-4.7-4.7s-4.7,2.1-4.7,4.7c0,0.1,0,0.2,0,0.4H36.4z"></path>
		<path class="st1" d="M40,132.9c0.2-0.5,0.3-1.1,0.3-1.7c0-2.6-2.1-4.7-4.7-4.7s-4.7,2.1-4.7,4.7c0,0.6,0.1,1.2,0.3,1.7H40z"></path>
		<path class="st1" d="M24.9,132.9c0-0.3,0.1-0.5,0.1-0.8c0-2.6-2.1-4.7-4.7-4.7c-2.6,0-4.7,2.1-4.7,4.7c0,0.3,0,0.6,0.1,0.8H24.9z"></path>
		<path class="st1" d="M17.5,132.9c-0.3-1.6-1.7-2.9-3.4-2.9c-1.7,0-3.2,1.3-3.4,2.9H17.5z"></path>
	</g>
	<circle class="st1" cx="20.3" cy="121.7" r="3.6"></circle>
	<circle class="st1" cx="36.4" cy="112.1" r="2.4"></circle>
	<circle class="st1" cx="27.1" cy="103.6" r="2.4"></circle>
	<circle class="st1" cx="28" cy="115.8" r="3"></circle>
</g>
</svg>
